<svg xmlns="http://www.w3.org/2000/svg" xmlns:xlink="http://www.w3.org/1999/xlink" width="600" zoomAndPan="magnify" viewBox="0 0 450 449.999984" height="600" preserveAspectRatio="xMidYMid meet" version="1.0"><defs><g/><clipPath id="add414a472"><path d="M 21.792969 21.792969 L 428.207031 21.792969 L 428.207031 428.207031 L 21.792969 428.207031 Z M 21.792969 21.792969 " clip-rule="nonzero"/></clipPath></defs><g clip-path="url(#add414a472)"><path fill="#42b3be" d="M 428.207031 225.003906 C 428.207031 337.226562 337.226562 428.207031 225.003906 428.207031 C 112.773438 428.207031 21.792969 337.226562 21.792969 225.003906 C 21.792969 112.773438 112.773438 21.792969 225.003906 21.792969 C 337.226562 21.792969 428.207031 112.773438 428.207031 225.003906 " fill-opacity="1" fill-rule="nonzero"/></g><path stroke-linecap="round" transform="matrix(0.159255, 0, 0, -0.159255, -113.575171, 563.575156)" fill="none" stroke-linejoin="round" d="M 1886.873316 1737.495612 C 1505.948145 1835.584457 1434.251797 1808.725921 1403.051745 1707.693675 C 1390.027194 1665.603038 1433.074437 1544.114153 1811.865642 1484.583864 C 1957.073435 1461.772505 2016.137686 1461.99326 2126.024663 1461.99326 C 2235.862585 1461.99326 2294.926835 1461.772505 2440.159156 1484.583864 C 2818.950362 1544.114153 2861.948548 1665.603038 2848.948526 1707.693675 C 2817.723945 1808.725921 2753.165345 1840.048615 2365.126954 1737.495612 " stroke="#ffffff" stroke-width="40" stroke-opacity="1" stroke-miterlimit="10"/><path stroke-linecap="round" transform="matrix(0.159255, 0, 0, -0.159255, -113.575171, 563.575156)" fill="none" stroke-linejoin="round" d="M 1893.643139 1737.495612 C 1975.518749 1786.846639 1975.077239 1908.727977 1947.703608 1994.160196 " stroke="#ffffff" stroke-width="40" stroke-opacity="1" stroke-miterlimit="10"/><path stroke-linecap="round" transform="matrix(0.159255, 0, 0, -0.159255, -113.575171, 563.575156)" fill="none" stroke-linejoin="round" d="M 2367.457147 1737.495612 C 2285.630593 1786.846639 2286.023047 1908.727977 2313.445735 1994.160196 " stroke="#ffffff" stroke-width="40" stroke-opacity="1" stroke-miterlimit="10"/><path fill="#42b3be" d="M 254.457031 122.550781 C 254.457031 141.34375 241.265625 156.585938 225.003906 156.585938 C 208.734375 156.585938 195.546875 141.34375 195.546875 122.550781 C 195.546875 103.757812 208.734375 88.515625 225.003906 88.515625 C 241.265625 88.515625 254.457031 103.757812 254.457031 122.550781 " fill-opacity="1" fill-rule="nonzero"/><path stroke-linecap="round" transform="matrix(0.159255, 0, 0, -0.159255, -113.575171, 563.575156)" fill="none" stroke-linejoin="round" d="M 2310.968372 2769.304901 C 2310.968372 2651.299042 2228.136157 2555.589446 2126.024663 2555.589446 C 2023.864114 2555.589446 1941.056427 2651.299042 1941.056427 2769.304901 C 1941.056427 2887.310761 2023.864114 2983.020357 2126.024663 2983.020357 C 2228.136157 2983.020357 2310.968372 2887.310761 2310.968372 2769.304901 Z M 2310.968372 2769.304901 " stroke="#ffffff" stroke-width="40" stroke-opacity="1" stroke-miterlimit="10"/><path stroke-linecap="round" transform="matrix(0.159255, 0, 0, -0.159255, -113.575171, 563.575156)" fill="none" stroke-linejoin="round" d="M 2227.964458 2493.876134 C 2403.97985 2486.640273 2459.364849 2449.725116 2458.800697 2256.368186 C 2458.432772 2140.937803 2445.849732 1828.446709 2596.331118 1806.886295 C 2666.285953 1796.854203 2761.284227 1800.631568 2781.986148 1895.482671 " stroke="#ffffff" stroke-width="40" stroke-opacity="1" stroke-miterlimit="10"/><path stroke-linecap="round" transform="matrix(0.159255, 0, 0, -0.159255, -113.575171, 563.575156)" fill="none" stroke-linejoin="round" d="M 2023.079207 2493.876134 C 1847.039287 2486.640273 1791.678816 2449.725116 1792.218439 2256.368186 C 1792.586365 2140.937803 1805.193933 1828.446709 1654.688019 1806.886295 C 1584.733184 1796.854203 1489.73491 1800.631568 1469.032988 1895.482671 " stroke="#ffffff" stroke-width="40" stroke-opacity="1" stroke-miterlimit="10"/><g fill="#ffffff" fill-opacity="1"><g transform="translate(63.142156, 224.143086)"><g><path d="M -3.484375 -9.78125 C -4.335938 -9.863281 -5.015625 -9.695312 -5.515625 -9.28125 C -6.015625 -8.863281 -6.539062 -8.066406 -7.09375 -6.890625 C -7.644531 -5.710938 -8.1875 -4.820312 -8.71875 -4.21875 C -9.257812 -3.613281 -9.847656 -3.179688 -10.484375 -2.921875 C -11.128906 -2.671875 -11.84375 -2.582031 -12.625 -2.65625 C -13.988281 -2.78125 -15.070312 -3.335938 -15.875 -4.328125 C -16.675781 -5.316406 -17.007812 -6.550781 -16.875 -8.03125 C -16.78125 -9.039062 -16.46875 -9.914062 -15.9375 -10.65625 C -15.414062 -11.40625 -14.726562 -11.957031 -13.875 -12.3125 C -13.03125 -12.664062 -12.128906 -12.796875 -11.171875 -12.703125 L -11.375 -10.515625 C -12.4375 -10.617188 -13.285156 -10.441406 -13.921875 -9.984375 C -14.554688 -9.523438 -14.921875 -8.816406 -15.015625 -7.859375 C -15.097656 -6.984375 -14.910156 -6.28125 -14.453125 -5.75 C -14.003906 -5.21875 -13.335938 -4.910156 -12.453125 -4.828125 C -11.734375 -4.765625 -11.101562 -4.972656 -10.5625 -5.453125 C -10.03125 -5.929688 -9.519531 -6.695312 -9.03125 -7.75 C -8.320312 -9.382812 -7.519531 -10.53125 -6.625 -11.1875 C -5.726562 -11.84375 -4.617188 -12.109375 -3.296875 -11.984375 C -1.898438 -11.859375 -0.820312 -11.300781 -0.0625 -10.3125 C 0.6875 -9.332031 0.988281 -8.054688 0.84375 -6.484375 C 0.75 -5.492188 0.445312 -4.585938 -0.0625 -3.765625 C -0.582031 -2.953125 -1.257812 -2.34375 -2.09375 -1.9375 C -2.9375 -1.539062 -3.875 -1.390625 -4.90625 -1.484375 L -4.703125 -3.65625 C -3.628906 -3.550781 -2.769531 -3.769531 -2.125 -4.3125 C -1.476562 -4.863281 -1.109375 -5.644531 -1.015625 -6.65625 C -0.929688 -7.613281 -1.109375 -8.351562 -1.546875 -8.875 C -1.992188 -9.394531 -2.640625 -9.695312 -3.484375 -9.78125 Z M -3.484375 -9.78125 "/></g></g></g><g fill="#ffffff" fill-opacity="1"><g transform="translate(65.424739, 204.4313)"><g><path d="M -12.5 -15 L -13.46875 -10.546875 L 1.59375 -7.25 L 1.125 -5.125 L -13.9375 -8.421875 L -14.90625 -4 L -16.75 -4.40625 L -14.34375 -15.40625 Z M -12.5 -15 "/></g></g></g><g fill="#ffffff" fill-opacity="1"><g transform="translate(70.091645, 185.110229)"><g><path d="M -12.234375 -17.28125 L -0.640625 -13.15625 C 0.890625 -12.59375 1.9375 -11.710938 2.5 -10.515625 C 3.0625 -9.328125 3.066406 -7.945312 2.515625 -6.375 C 1.941406 -4.757812 1.078125 -3.675781 -0.078125 -3.125 C -1.242188 -2.570312 -2.617188 -2.570312 -4.203125 -3.125 L -15.796875 -7.25 L -15.078125 -9.28125 L -3.5625 -5.1875 C -2.46875 -4.800781 -1.5625 -4.742188 -0.84375 -5.015625 C -0.132812 -5.285156 0.40625 -5.941406 0.78125 -6.984375 C 1.144531 -8.035156 1.132812 -8.890625 0.75 -9.546875 C 0.375 -10.210938 -0.359375 -10.738281 -1.453125 -11.125 L -12.96875 -15.21875 Z M -12.234375 -17.28125 "/></g></g></g><g fill="#ffffff" fill-opacity="1"><g transform="translate(77.493818, 165.613694)"><g><path d="M 0.84375 -1.65625 L -14.59375 -9.5 L -12.71875 -13.171875 C -11.8125 -14.972656 -10.535156 -16.085938 -8.890625 -16.515625 C -7.253906 -16.941406 -5.414062 -16.632812 -3.375 -15.59375 L -0.78125 -14.28125 C 1.25 -13.25 2.5625 -11.941406 3.15625 -10.359375 C 3.757812 -8.785156 3.570312 -7.035156 2.59375 -5.109375 Z M -11.921875 -10.59375 L 0.171875 -4.453125 L 0.96875 -6 C 1.65625 -7.363281 1.765625 -8.5625 1.296875 -9.59375 C 0.835938 -10.625 -0.15625 -11.53125 -1.6875 -12.3125 L -4.421875 -13.703125 C -6.046875 -14.523438 -7.390625 -14.816406 -8.453125 -14.578125 C -9.523438 -14.347656 -10.382812 -13.59375 -11.03125 -12.3125 Z M -11.921875 -10.59375 "/></g></g></g><g fill="#ffffff" fill-opacity="1"><g transform="translate(87.645362, 146.9516)"><g><path d="M 2.265625 -3.46875 L 1.078125 -1.65625 L -13.421875 -11.109375 L -12.234375 -12.921875 Z M 2.265625 -3.46875 "/></g></g></g><g fill="#ffffff" fill-opacity="1"><g transform="translate(95.1191, 135.798193)"><g><path d="M 2.796875 -14.671875 C 4.617188 -13.179688 5.707031 -11.640625 6.0625 -10.046875 C 6.414062 -8.460938 6.003906 -6.953125 4.828125 -5.515625 C 3.691406 -4.128906 2.316406 -3.429688 0.703125 -3.421875 C -0.910156 -3.410156 -2.601562 -4.101562 -4.375 -5.5 L -6.90625 -7.5625 C -8.695312 -9.03125 -9.773438 -10.578125 -10.140625 -12.203125 C -10.515625 -13.828125 -10.117188 -15.347656 -8.953125 -16.765625 C -7.796875 -18.179688 -6.40625 -18.882812 -4.78125 -18.875 C -3.164062 -18.863281 -1.453125 -18.128906 0.359375 -16.671875 Z M -0.921875 -14.90625 C -2.335938 -16.0625 -3.578125 -16.691406 -4.640625 -16.796875 C -5.710938 -16.898438 -6.640625 -16.472656 -7.421875 -15.515625 C -8.179688 -14.585938 -8.40625 -13.597656 -8.09375 -12.546875 C -7.789062 -11.503906 -6.960938 -10.425781 -5.609375 -9.3125 L -3.203125 -7.34375 C -1.835938 -6.226562 -0.601562 -5.613281 0.5 -5.5 C 1.601562 -5.382812 2.539062 -5.796875 3.3125 -6.734375 C 4.09375 -7.679688 4.335938 -8.648438 4.046875 -9.640625 C 3.753906 -10.640625 2.929688 -11.710938 1.578125 -12.859375 Z M -0.921875 -14.90625 "/></g></g></g><g fill="#ffffff" fill-opacity="1"><g transform="translate(109.516673, 119.214252)"><g/></g></g><g fill="#ffffff" fill-opacity="1"><g transform="translate(118.867499, 110.263034)"><g><path d="M 1.453125 -1.15625 L -9.3125 -14.703125 L -6.078125 -17.265625 C -4.492188 -18.523438 -2.867188 -19.007812 -1.203125 -18.71875 C 0.453125 -18.425781 1.992188 -17.382812 3.421875 -15.59375 L 5.21875 -13.3125 C 6.644531 -11.53125 7.300781 -9.796875 7.1875 -8.109375 C 7.070312 -6.421875 6.171875 -4.90625 4.484375 -3.5625 Z M -6.421875 -14.59375 L 2.015625 -3.96875 L 3.375 -5.046875 C 4.570312 -6.003906 5.171875 -7.046875 5.171875 -8.171875 C 5.179688 -9.296875 4.65625 -10.539062 3.59375 -11.90625 L 1.6875 -14.296875 C 0.550781 -15.722656 -0.550781 -16.550781 -1.625 -16.78125 C -2.695312 -17.019531 -3.789062 -16.691406 -4.90625 -15.796875 Z M -6.421875 -14.59375 "/></g></g></g><g fill="#ffffff" fill-opacity="1"><g transform="translate(135.703076, 97.525981)"><g><path d="M 4.515625 -12.109375 L -0.703125 -8.9375 L 2.484375 -3.703125 L 8.578125 -7.40625 L 9.546875 -5.8125 L 1.59375 -0.96875 L -7.40625 -15.75 L 0.4375 -20.53125 L 1.421875 -18.921875 L -4.5625 -15.28125 L -1.671875 -10.53125 L 3.546875 -13.703125 Z M 4.515625 -12.109375 "/></g></g></g><g fill="#ffffff" fill-opacity="1"><g transform="translate(152.616135, 87.844945)"><g/></g></g><g fill="#ffffff" fill-opacity="1"><g transform="translate(164.395035, 82.415253)"><g><path d="M 3.078125 -10.265625 L 3.46875 -19.640625 L 5.78125 -20.484375 L 4.828125 -8.59375 L 7.015625 -2.515625 L 4.96875 -1.78125 L 2.78125 -7.859375 L -5.515625 -16.421875 L -3.203125 -17.25 Z M 3.078125 -10.265625 "/></g></g></g><g fill="#ffffff" fill-opacity="1"><g transform="translate(183.308899, 76.051133)"><g><path d="M 11.28125 -9.765625 C 11.789062 -7.472656 11.691406 -5.59375 10.984375 -4.125 C 10.273438 -2.664062 9.015625 -1.738281 7.203125 -1.34375 C 5.453125 -0.957031 3.941406 -1.257812 2.671875 -2.25 C 1.398438 -3.238281 0.503906 -4.832031 -0.015625 -7.03125 L -0.71875 -10.21875 C -1.21875 -12.476562 -1.109375 -14.359375 -0.390625 -15.859375 C 0.316406 -17.359375 1.566406 -18.304688 3.359375 -18.703125 C 5.140625 -19.097656 6.660156 -18.789062 7.921875 -17.78125 C 9.191406 -16.769531 10.085938 -15.128906 10.609375 -12.859375 Z M 8.53125 -12.265625 C 8.132812 -14.054688 7.546875 -15.320312 6.765625 -16.0625 C 5.984375 -16.8125 4.988281 -17.050781 3.78125 -16.78125 C 2.613281 -16.519531 1.828125 -15.882812 1.421875 -14.875 C 1.015625 -13.863281 1.003906 -12.5 1.390625 -10.78125 L 2.046875 -7.734375 C 2.421875 -6.015625 3.003906 -4.765625 3.796875 -3.984375 C 4.597656 -3.210938 5.59375 -2.957031 6.78125 -3.21875 C 7.976562 -3.488281 8.769531 -4.101562 9.15625 -5.0625 C 9.539062 -6.03125 9.5625 -7.378906 9.21875 -9.109375 Z M 8.53125 -12.265625 "/></g></g></g><g fill="#ffffff" fill-opacity="1"><g transform="translate(204.672568, 71.854801)"><g><path d="M 12.46875 -3.203125 L 12.125 -2.6875 C 11.144531 -1.320312 9.601562 -0.554688 7.5 -0.390625 C 5.632812 -0.234375 4.125 -0.726562 2.96875 -1.875 C 1.8125 -3.019531 1.125 -4.71875 0.90625 -6.96875 L 0.625 -10.375 C 0.414062 -12.789062 0.742188 -14.640625 1.609375 -15.921875 C 2.484375 -17.203125 3.878906 -17.921875 5.796875 -18.078125 C 7.453125 -18.222656 8.78125 -17.875 9.78125 -17.03125 C 10.78125 -16.1875 11.394531 -14.921875 11.625 -13.234375 L 9.46875 -13.0625 C 9.300781 -14.125 8.9375 -14.9375 8.375 -15.5 C 7.8125 -16.070312 7.007812 -16.316406 5.96875 -16.234375 C 4.738281 -16.128906 3.867188 -15.644531 3.359375 -14.78125 C 2.847656 -13.925781 2.648438 -12.609375 2.765625 -10.828125 L 3.0625 -7.296875 C 3.207031 -5.554688 3.648438 -4.25 4.390625 -3.375 C 5.128906 -2.507812 6.117188 -2.128906 7.359375 -2.234375 C 8.523438 -2.328125 9.394531 -2.679688 9.96875 -3.296875 L 10.25 -3.625 L 9.921875 -7.625 L 6.765625 -7.359375 L 6.609375 -9.203125 L 11.921875 -9.640625 Z M 12.46875 -3.203125 "/></g></g></g><g fill="#ffffff" fill-opacity="1"><g transform="translate(226.180309, 70.556833)"><g><path d="M 10.140625 -4.03125 L 4.3125 -4.3125 L 2.75 0.140625 L 0.515625 0.03125 L 6.9375 -17 L 8.78125 -16.90625 L 13.515625 0.65625 L 11.28125 0.546875 Z M 4.96875 -6.15625 L 9.671875 -5.9375 L 7.703125 -13.90625 Z M 4.96875 -6.15625 "/></g></g></g><g fill="#ffffff" fill-opacity="1"><g transform="translate(247.49406, 72.215381)"><g/></g></g><g fill="#ffffff" fill-opacity="1"><g transform="translate(260.270318, 74.393113)"><g><path d="M 2.359375 -4.171875 C 2.566406 -4.972656 2.953125 -5.65625 3.515625 -6.21875 C 4.078125 -6.789062 5.003906 -7.378906 6.296875 -7.984375 C 5.910156 -9.023438 5.675781 -9.863281 5.59375 -10.5 C 5.507812 -11.132812 5.539062 -11.734375 5.6875 -12.296875 C 6.03125 -13.566406 6.625 -14.472656 7.46875 -15.015625 C 8.3125 -15.566406 9.285156 -15.695312 10.390625 -15.40625 C 11.398438 -15.144531 12.140625 -14.585938 12.609375 -13.734375 C 13.085938 -12.878906 13.191406 -11.953125 12.921875 -10.953125 C 12.742188 -10.285156 12.453125 -9.707031 12.046875 -9.21875 C 11.640625 -8.726562 11.03125 -8.28125 10.21875 -7.875 L 8.765625 -7.171875 L 10.578125 -2.171875 C 11.191406 -2.984375 11.644531 -3.957031 11.9375 -5.09375 L 13.75 -4.625 C 13.25 -2.695312 12.441406 -1.210938 11.328125 -0.171875 L 12.59375 3.328125 L 10.15625 2.6875 L 9.640625 1.234375 C 9.078125 1.554688 8.453125 1.769531 7.765625 1.875 C 7.078125 1.976562 6.394531 1.941406 5.71875 1.765625 C 4.320312 1.390625 3.316406 0.65625 2.703125 -0.4375 C 2.097656 -1.53125 1.984375 -2.773438 2.359375 -4.171875 Z M 6.1875 0.015625 C 7.082031 0.253906 8.019531 0.0546875 9 -0.578125 L 6.953125 -6.296875 L 6.53125 -6.109375 C 5.363281 -5.472656 4.648438 -4.648438 4.390625 -3.640625 C 4.148438 -2.753906 4.191406 -1.972656 4.515625 -1.296875 C 4.835938 -0.628906 5.394531 -0.191406 6.1875 0.015625 Z M 7.734375 -11.828125 C 7.628906 -11.410156 7.617188 -10.957031 7.703125 -10.46875 C 7.785156 -9.976562 7.929688 -9.441406 8.140625 -8.859375 L 9.234375 -9.390625 C 9.796875 -9.640625 10.207031 -9.914062 10.46875 -10.21875 C 10.726562 -10.519531 10.925781 -10.925781 11.0625 -11.4375 C 11.195312 -11.945312 11.15625 -12.410156 10.9375 -12.828125 C 10.726562 -13.253906 10.382812 -13.53125 9.90625 -13.65625 C 9.414062 -13.789062 8.972656 -13.675781 8.578125 -13.3125 C 8.179688 -12.957031 7.898438 -12.460938 7.734375 -11.828125 Z M 7.734375 -11.828125 "/></g></g></g><g fill="#ffffff" fill-opacity="1"><g transform="translate(280.031932, 80.213967)"><g/></g></g><g fill="#ffffff" fill-opacity="1"><g transform="translate(292.039422, 84.806105)"><g><path d="M 12.140625 -13.203125 L 9.609375 1.421875 L 20.15625 -9.03125 L 22.640625 -7.734375 L 14.640625 7.625 L 12.703125 6.625 L 15.8125 0.65625 L 19.125 -5.234375 L 8.875 4.625 L 7.40625 3.859375 L 9.609375 -10.140625 L 6.703125 -4.09375 L 3.59375 1.875 L 1.65625 0.859375 L 9.65625 -14.5 Z M 12.140625 -13.203125 "/></g></g></g><g fill="#ffffff" fill-opacity="1"><g transform="translate(314.316244, 97.210522)"><g><path d="M 12.921875 -0.625 L 7.9375 -4.171875 L 4.375 0.828125 L 10.1875 4.953125 L 9.109375 6.46875 L 1.515625 1.078125 L 11.546875 -13.03125 L 19.03125 -7.703125 L 17.9375 -6.15625 L 12.234375 -10.21875 L 9.015625 -5.6875 L 14 -2.140625 Z M 12.921875 -0.625 "/></g></g></g><g fill="#ffffff" fill-opacity="1"><g transform="translate(329.822238, 108.717675)"><g><path d="M 1.375 1.25 L 13.078125 -11.5 L 16.109375 -8.703125 C 17.597656 -7.335938 18.328125 -5.804688 18.296875 -4.109375 C 18.265625 -2.421875 17.472656 -0.734375 15.921875 0.953125 L 13.953125 3.09375 C 12.410156 4.769531 10.800781 5.679688 9.125 5.828125 C 7.445312 5.984375 5.8125 5.332031 4.21875 3.875 Z M 13.40625 -8.625 L 4.234375 1.359375 L 5.515625 2.53125 C 6.640625 3.570312 7.757812 4.007812 8.875 3.84375 C 10 3.675781 11.144531 2.957031 12.3125 1.6875 L 14.390625 -0.5625 C 15.617188 -1.90625 16.257812 -3.125 16.3125 -4.21875 C 16.375 -5.3125 15.878906 -6.34375 14.828125 -7.3125 Z M 13.40625 -8.625 "/></g></g></g><g fill="#ffffff" fill-opacity="1"><g transform="translate(345.052934, 123.524897)"><g><path d="M 2.734375 3.109375 L 1.296875 1.484375 L 14.296875 -9.953125 L 15.734375 -8.328125 Z M 2.734375 3.109375 "/></g></g></g><g fill="#ffffff" fill-opacity="1"><g transform="translate(353.789892, 133.777329)"><g><path d="M 19.5 0.828125 L 16.859375 -2.890625 L 4.296875 6.046875 L 3.046875 4.28125 L 15.609375 -4.65625 L 12.984375 -8.359375 L 14.53125 -9.453125 L 21.046875 -0.265625 Z M 19.5 0.828125 "/></g></g></g><g fill="#ffffff" fill-opacity="1"><g transform="translate(364.967184, 150.210032)"><g><path d="M 8.671875 6.640625 L 5.921875 1.484375 L 1.296875 2.421875 L 0.25 0.453125 L 18.140625 -2.796875 L 19.015625 -1.15625 L 6.390625 11.9375 L 5.328125 9.96875 Z M 7.84375 1.09375 L 10.0625 5.25 L 15.890625 -0.546875 Z M 7.84375 1.09375 "/></g></g></g><g fill="#ffffff" fill-opacity="1"><g transform="translate(374.550746, 169.122688)"><g><path d="M 9.625 9.953125 C 7.863281 10.523438 6.351562 10.539062 5.09375 10 C 3.84375 9.457031 2.914062 8.375 2.3125 6.75 C 1.695312 5.132812 1.820312 3.613281 2.6875 2.1875 C 3.5625 0.769531 5.054688 -0.335938 7.171875 -1.140625 L 10.109375 -2.25 C 12.210938 -3.039062 14.0625 -3.175781 15.65625 -2.65625 C 17.25 -2.132812 18.363281 -1.023438 19 0.671875 C 19.59375 2.234375 19.582031 3.617188 18.96875 4.828125 C 18.351562 6.035156 17.191406 7.003906 15.484375 7.734375 L 14.703125 5.6875 C 15.992188 5.09375 16.832031 4.457031 17.21875 3.78125 C 17.601562 3.101562 17.613281 2.289062 17.25 1.34375 C 16.832031 0.238281 16.078125 -0.445312 14.984375 -0.71875 C 13.898438 -0.988281 12.523438 -0.804688 10.859375 -0.171875 L 7.890625 0.953125 C 6.253906 1.566406 5.097656 2.316406 4.421875 3.203125 C 3.753906 4.085938 3.617188 5.054688 4.015625 6.109375 C 4.421875 7.171875 4.972656 7.832031 5.671875 8.09375 C 6.378906 8.363281 7.4375 8.300781 8.84375 7.90625 Z M 2.65625 7.359375 L 2.03125 7.46875 C 2.125 7.945312 2.046875 8.367188 1.796875 8.734375 C 1.546875 9.097656 1.160156 9.378906 0.640625 9.578125 C -0.0664062 9.847656 -0.722656 9.8125 -1.328125 9.46875 C -1.941406 9.132812 -2.421875 8.507812 -2.765625 7.59375 L -1.609375 7.09375 C -1.253906 8.039062 -0.707031 8.375 0.03125 8.09375 C 0.351562 7.96875 0.550781 7.773438 0.625 7.515625 C 0.707031 7.265625 0.675781 6.835938 0.53125 6.234375 L 2.125 5.96875 Z M 2.65625 7.359375 "/></g></g></g><g fill="#ffffff" fill-opacity="1"><g transform="translate(381.533379, 188.906047)"><g><path d="M 6.671875 8.640625 L 5.328125 2.953125 L 0.625 2.671875 L 0.125 0.5 L 18.234375 1.96875 L 18.671875 3.765625 L 3.09375 13.171875 L 2.59375 11 Z M 7.28125 3.0625 L 8.375 7.65625 L 15.5 3.5625 Z M 23.421875 5.4375 C 22.609375 5.625 21.890625 5.578125 21.265625 5.296875 C 20.648438 5.023438 20.269531 4.570312 20.125 3.9375 C 20.0625 3.664062 20.046875 3.421875 20.078125 3.203125 C 20.117188 2.984375 20.21875 2.695312 20.375 2.34375 C 20.539062 1.988281 20.628906 1.734375 20.640625 1.578125 C 20.660156 1.421875 20.648438 1.253906 20.609375 1.078125 C 20.546875 0.816406 20.375 0.628906 20.09375 0.515625 C 19.8125 0.398438 19.484375 0.390625 19.109375 0.484375 L 18.859375 -0.875 C 19.703125 -1.070312 20.4375 -1.023438 21.0625 -0.734375 C 21.6875 -0.453125 22.070312 -0.0078125 22.21875 0.59375 C 22.269531 0.832031 22.273438 1.050781 22.234375 1.25 C 22.203125 1.457031 22.117188 1.722656 21.984375 2.046875 C 21.847656 2.378906 21.757812 2.640625 21.71875 2.828125 C 21.675781 3.023438 21.675781 3.226562 21.71875 3.4375 C 21.78125 3.695312 21.957031 3.882812 22.25 4 C 22.550781 4.125 22.882812 4.144531 23.25 4.0625 Z M 23.421875 5.4375 "/></g></g></g><g fill="#ffffff" fill-opacity="1"><g transform="translate(385.950232, 209.623997)"><g><path d="M 8.390625 12.359375 C 6.046875 12.585938 4.1875 12.265625 2.8125 11.390625 C 1.445312 10.515625 0.671875 9.15625 0.484375 7.3125 C 0.304688 5.53125 0.785156 4.066406 1.921875 2.921875 C 3.054688 1.773438 4.742188 1.070312 6.984375 0.8125 L 10.234375 0.484375 C 12.535156 0.253906 14.390625 0.582031 15.796875 1.46875 C 17.203125 2.351562 17.992188 3.707031 18.171875 5.53125 C 18.347656 7.34375 17.863281 8.816406 16.71875 9.953125 C 15.582031 11.097656 13.851562 11.796875 11.53125 12.046875 Z M 11.1875 9.90625 C 13.007812 9.71875 14.332031 9.28125 15.15625 8.59375 C 15.988281 7.914062 16.34375 6.960938 16.21875 5.734375 C 16.101562 4.535156 15.566406 3.675781 14.609375 3.15625 C 13.648438 2.632812 12.296875 2.457031 10.546875 2.625 L 7.453125 2.9375 C 5.703125 3.113281 4.394531 3.546875 3.53125 4.234375 C 2.664062 4.929688 2.289062 5.890625 2.40625 7.109375 C 2.53125 8.328125 3.046875 9.1875 3.953125 9.6875 C 4.867188 10.1875 6.207031 10.363281 7.96875 10.21875 Z M 11.1875 9.90625 "/></g></g></g><g fill="#ffffff" fill-opacity="1"><g transform="translate(129.856435, 382.112937)"><g><path d="M 9.640625 0.1875 C 8.003906 0.1875 6.4375 -0.0703125 4.9375 -0.59375 C 3.445312 -1.113281 2.289062 -1.804688 1.46875 -2.671875 L 2.390625 -4.453125 C 3.179688 -3.660156 4.234375 -3.019531 5.546875 -2.53125 C 6.867188 -2.039062 8.234375 -1.796875 9.640625 -1.796875 C 11.609375 -1.796875 13.082031 -2.15625 14.0625 -2.875 C 15.050781 -3.59375 15.546875 -4.53125 15.546875 -5.6875 C 15.546875 -6.5625 15.273438 -7.257812 14.734375 -7.78125 C 14.203125 -8.3125 13.550781 -8.71875 12.78125 -9 C 12.007812 -9.28125 10.929688 -9.585938 9.546875 -9.921875 C 7.890625 -10.335938 6.566406 -10.738281 5.578125 -11.125 C 4.597656 -11.519531 3.757812 -12.113281 3.0625 -12.90625 C 2.363281 -13.695312 2.015625 -14.773438 2.015625 -16.140625 C 2.015625 -17.253906 2.304688 -18.265625 2.890625 -19.171875 C 3.472656 -20.085938 4.367188 -20.816406 5.578125 -21.359375 C 6.796875 -21.898438 8.304688 -22.171875 10.109375 -22.171875 C 11.367188 -22.171875 12.597656 -22 13.796875 -21.65625 C 15.003906 -21.3125 16.046875 -20.832031 16.921875 -20.21875 L 16.140625 -18.375 C 15.222656 -18.976562 14.238281 -19.429688 13.1875 -19.734375 C 12.144531 -20.035156 11.117188 -20.1875 10.109375 -20.1875 C 8.179688 -20.1875 6.726562 -19.816406 5.75 -19.078125 C 4.78125 -18.335938 4.296875 -17.378906 4.296875 -16.203125 C 4.296875 -15.328125 4.5625 -14.617188 5.09375 -14.078125 C 5.632812 -13.546875 6.304688 -13.140625 7.109375 -12.859375 C 7.921875 -12.578125 9.003906 -12.269531 10.359375 -11.9375 C 11.972656 -11.539062 13.273438 -11.144531 14.265625 -10.75 C 15.265625 -10.363281 16.109375 -9.773438 16.796875 -8.984375 C 17.492188 -8.203125 17.84375 -7.144531 17.84375 -5.8125 C 17.84375 -4.695312 17.539062 -3.679688 16.9375 -2.765625 C 16.34375 -1.859375 15.425781 -1.140625 14.1875 -0.609375 C 12.957031 -0.078125 11.441406 0.1875 9.640625 0.1875 Z M 9.640625 0.1875 "/></g></g></g><g fill="#ffffff" fill-opacity="1"><g transform="translate(149.162956, 382.112937)"><g><path d="M 13.1875 0.1875 C 11.007812 0.1875 9.035156 -0.296875 7.265625 -1.265625 C 5.492188 -2.242188 4.113281 -3.578125 3.125 -5.265625 C 2.132812 -6.960938 1.640625 -8.867188 1.640625 -10.984375 C 1.640625 -13.109375 2.132812 -15.015625 3.125 -16.703125 C 4.113281 -18.398438 5.492188 -19.734375 7.265625 -20.703125 C 9.035156 -21.679688 11.007812 -22.171875 13.1875 -22.171875 C 15.363281 -22.171875 17.328125 -21.6875 19.078125 -20.71875 C 20.828125 -19.757812 22.203125 -18.425781 23.203125 -16.71875 C 24.210938 -15.019531 24.71875 -13.109375 24.71875 -10.984375 C 24.71875 -8.867188 24.210938 -6.957031 23.203125 -5.25 C 22.203125 -3.550781 20.828125 -2.21875 19.078125 -1.25 C 17.328125 -0.289062 15.363281 0.1875 13.1875 0.1875 Z M 13.1875 -1.890625 C 14.925781 -1.890625 16.492188 -2.28125 17.890625 -3.0625 C 19.296875 -3.84375 20.394531 -4.929688 21.1875 -6.328125 C 21.988281 -7.722656 22.390625 -9.273438 22.390625 -10.984375 C 22.390625 -12.703125 21.988281 -14.257812 21.1875 -15.65625 C 20.394531 -17.050781 19.296875 -18.140625 17.890625 -18.921875 C 16.492188 -19.703125 14.925781 -20.09375 13.1875 -20.09375 C 11.445312 -20.09375 9.867188 -19.703125 8.453125 -18.921875 C 7.046875 -18.140625 5.9375 -17.050781 5.125 -15.65625 C 4.320312 -14.257812 3.921875 -12.703125 3.921875 -10.984375 C 3.921875 -9.273438 4.320312 -7.722656 5.125 -6.328125 C 5.9375 -4.929688 7.046875 -3.84375 8.453125 -3.0625 C 9.867188 -2.28125 11.445312 -1.890625 13.1875 -1.890625 Z M 13.1875 -1.890625 "/></g></g></g><g fill="#ffffff" fill-opacity="1"><g transform="translate(175.501452, 382.112937)"><g><path d="M 12.4375 0.1875 C 9.59375 0.1875 7.375 -0.625 5.78125 -2.25 C 4.1875 -3.882812 3.390625 -6.265625 3.390625 -9.390625 L 3.390625 -21.984375 L 5.71875 -21.984375 L 5.71875 -9.484375 C 5.71875 -6.929688 6.289062 -5.023438 7.4375 -3.765625 C 8.59375 -2.515625 10.257812 -1.890625 12.4375 -1.890625 C 14.632812 -1.890625 16.304688 -2.515625 17.453125 -3.765625 C 18.609375 -5.023438 19.1875 -6.929688 19.1875 -9.484375 L 19.1875 -21.984375 L 21.453125 -21.984375 L 21.453125 -9.390625 C 21.453125 -6.265625 20.660156 -3.882812 19.078125 -2.25 C 17.492188 -0.625 15.28125 0.1875 12.4375 0.1875 Z M 12.4375 0.1875 "/></g></g></g><g fill="#ffffff" fill-opacity="1"><g transform="translate(200.364488, 382.112937)"><g><path d="M 3.578125 -21.984375 L 5.90625 -21.984375 L 5.90625 -2.015625 L 18.21875 -2.015625 L 18.21875 0 L 3.578125 0 Z M 3.578125 -21.984375 "/></g></g></g><g fill="#ffffff" fill-opacity="1"><g transform="translate(218.854795, 382.112937)"><g/></g></g><g fill="#ffffff" fill-opacity="1"><g transform="translate(227.079691, 382.112937)"><g><path d="M 11.125 -7.59375 L 11.125 0 L 8.828125 0 L 8.828125 -7.59375 L 0.03125 -21.984375 L 2.515625 -21.984375 L 10.046875 -9.640625 L 17.59375 -21.984375 L 19.90625 -21.984375 Z M 11.125 -7.59375 "/></g></g></g><g fill="#ffffff" fill-opacity="1"><g transform="translate(247.014065, 382.112937)"><g><path d="M 13.1875 0.1875 C 11.007812 0.1875 9.035156 -0.296875 7.265625 -1.265625 C 5.492188 -2.242188 4.113281 -3.578125 3.125 -5.265625 C 2.132812 -6.960938 1.640625 -8.867188 1.640625 -10.984375 C 1.640625 -13.109375 2.132812 -15.015625 3.125 -16.703125 C 4.113281 -18.398438 5.492188 -19.734375 7.265625 -20.703125 C 9.035156 -21.679688 11.007812 -22.171875 13.1875 -22.171875 C 15.363281 -22.171875 17.328125 -21.6875 19.078125 -20.71875 C 20.828125 -19.757812 22.203125 -18.425781 23.203125 -16.71875 C 24.210938 -15.019531 24.71875 -13.109375 24.71875 -10.984375 C 24.71875 -8.867188 24.210938 -6.957031 23.203125 -5.25 C 22.203125 -3.550781 20.828125 -2.21875 19.078125 -1.25 C 17.328125 -0.289062 15.363281 0.1875 13.1875 0.1875 Z M 13.1875 -1.890625 C 14.925781 -1.890625 16.492188 -2.28125 17.890625 -3.0625 C 19.296875 -3.84375 20.394531 -4.929688 21.1875 -6.328125 C 21.988281 -7.722656 22.390625 -9.273438 22.390625 -10.984375 C 22.390625 -12.703125 21.988281 -14.257812 21.1875 -15.65625 C 20.394531 -17.050781 19.296875 -18.140625 17.890625 -18.921875 C 16.492188 -19.703125 14.925781 -20.09375 13.1875 -20.09375 C 11.445312 -20.09375 9.867188 -19.703125 8.453125 -18.921875 C 7.046875 -18.140625 5.9375 -17.050781 5.125 -15.65625 C 4.320312 -14.257812 3.921875 -12.703125 3.921875 -10.984375 C 3.921875 -9.273438 4.320312 -7.722656 5.125 -6.328125 C 5.9375 -4.929688 7.046875 -3.84375 8.453125 -3.0625 C 9.867188 -2.28125 11.445312 -1.890625 13.1875 -1.890625 Z M 13.1875 -1.890625 "/></g></g></g><g fill="#ffffff" fill-opacity="1"><g transform="translate(273.352561, 382.112937)"><g><path d="M 19.0625 -10.984375 L 21.296875 -10.984375 L 21.296875 -2.609375 C 20.265625 -1.703125 19.046875 -1.007812 17.640625 -0.53125 C 16.242188 -0.0507812 14.769531 0.1875 13.21875 0.1875 C 11.019531 0.1875 9.039062 -0.289062 7.28125 -1.25 C 5.519531 -2.21875 4.140625 -3.550781 3.140625 -5.25 C 2.140625 -6.957031 1.640625 -8.867188 1.640625 -10.984375 C 1.640625 -13.109375 2.140625 -15.019531 3.140625 -16.71875 C 4.140625 -18.425781 5.519531 -19.757812 7.28125 -20.71875 C 9.039062 -21.6875 11.03125 -22.171875 13.25 -22.171875 C 14.925781 -22.171875 16.460938 -21.90625 17.859375 -21.375 C 19.265625 -20.84375 20.453125 -20.050781 21.421875 -19 L 19.96875 -17.53125 C 18.238281 -19.238281 16.03125 -20.09375 13.34375 -20.09375 C 11.5625 -20.09375 9.953125 -19.703125 8.515625 -18.921875 C 7.085938 -18.140625 5.960938 -17.050781 5.140625 -15.65625 C 4.328125 -14.257812 3.921875 -12.703125 3.921875 -10.984375 C 3.921875 -9.273438 4.328125 -7.726562 5.140625 -6.34375 C 5.960938 -4.957031 7.082031 -3.867188 8.5 -3.078125 C 9.925781 -2.285156 11.53125 -1.890625 13.3125 -1.890625 C 15.570312 -1.890625 17.488281 -2.453125 19.0625 -3.578125 Z M 19.0625 -10.984375 "/></g></g></g><g fill="#ffffff" fill-opacity="1"><g transform="translate(297.619137, 382.112937)"><g><path d="M 17.375 -5.875 L 5.125 -5.875 L 2.484375 0 L 0.0625 0 L 10.109375 -21.984375 L 12.40625 -21.984375 L 22.453125 0 L 20 0 Z M 16.515625 -7.75 L 11.25 -19.5625 L 5.96875 -7.75 Z M 16.515625 -7.75 "/></g></g></g></svg>